<svg xmlns="http://www.w3.org/2000/svg" viewBox="0 0 1024 1024" width="1024" height="1024">
  <defs><clipPath id="inner"><circle cx="511.5" cy="511.5" r="395"></circle></clipPath></defs>
  <g clip-path="url(#inner)">
    <rect width="1024" height="1024"></rect>
    <path d="M272 516L326 517L361 523L410 539L441 554L478 579L496 594L521 619L551 660L568 691L588 683L625 674L677 672L714 677L744 686L764 695L790 710L824 736L796 772L775 793L742 821L700 848L675 861L646 873L619 882L611 883L609 885L585 889L583 891L535 897L485 897L457 894L400 882L346 861L310 842L264 809L246 793L214 759L187 722L172 697L168 687L166 686L144 633L132 587L131 569L129 565L157 548L190 533L220 524L257 517L271 517Z" fill="#FFFFFF"></path>
    <path d="M625 281L626 291L628 294L629 304L631 308L631 312L634 319L635 325L637 327L638 333L640 335L640 337L643 341L644 345L646 346L653 358L669 373L676 377L678 377L682 380L684 380L686 382L691 383L697 386L700 386L702 388L711 389L714 391L725 392L728 394L735 395L722 396L718 398L708 399L705 401L694 403L674 412L657 424L647 435L638 450L637 455L634 461L634 464L632 467L631 475L629 478L628 489L626 493L625 505L624 504L624 497L622 493L621 481L619 477L618 469L615 463L614 457L611 450L609 448L608 444L603 438L603 436L601 435L596 428L586 420L585 418L575 412L560 405L543 401L540 399L535 399L534 398L529 398L526 396L515 395L516 394L521 394L524 392L534 391L537 389L546 388L548 386L555 385L557 383L563 382L581 373L594 362L605 347L614 328L621 303L622 292L624 288L624 282Z" fill="#FFFFFF"></path>
  </g>
</svg>
